# xmcd
#
# Track frame offsets: 
#        182
#        12422
#        24105
#        38170
#        52707
#        69570
#        79150
#        98357
#        106762
#        119217
#        128852
#        143022
#
# Disc length: 2092 seconds
#
# Revision: 5
# Processed by: cddbd v1.5.2PL0 Copyright (c) Steve Scherf et al.
# Submitted via: ExactAudioCopy v0.99pb5
#
DISCID=8f082a0c
DTITLE=Tim Buckley - Tim Buckley
DYEAR=1966
DGENRE=Folk/Rock
TTITLE0=I Can't See You
TTITLE1=Wings
TTITLE2=Song of the Magician
TTITLE3=Strange Street Affair Under Blue
TTITLE4=Valentine Melody
TTITLE5=Aren't You the Girl
TTITLE6=Song Slowly Song
TTITLE7=It Happens Every Time
TTITLE8=Song for Jainie
TTITLE9=Grief in my Soul
TTITLE10=She Is
TTITLE11=Understand Your Man
EXTD=
EXTT0=
EXTT1=
EXTT2=
EXTT3=
EXTT4=
EXTT5=
EXTT6=
EXTT7=
EXTT8=
EXTT9=
EXTT10=
EXTT11=
PLAYORDER=
